<?xml version="1.0" encoding="UTF-8" standalone="no"?>
<svg
   xmlns:dc="http://purl.org/dc/elements/1.1/"
   xmlns:cc="http://creativecommons.org/ns#"
   xmlns:rdf="http://www.w3.org/1999/02/22-rdf-syntax-ns#"
   xmlns:svg="http://www.w3.org/2000/svg"
   xmlns="http://www.w3.org/2000/svg"
   viewBox="0 0 101.37676 91.257424"
   height="91.257423"
   width="101.37676"
   version="1.1"
   id="svg4199">
  <metadata
     id="metadata4205">
    <rdf:RDF>
      <cc:Work
         rdf:about="">
        <dc:format>image/svg+xml</dc:format>
        <dc:type
           rdf:resource="http://purl.org/dc/dcmitype/StillImage" />
        <dc:title></dc:title>
      </cc:Work>
    </rdf:RDF>
  </metadata>
  <defs
     id="defs4203" />
  <path
     id="hex5"
     d="M 47.515382,1.1342019 22.72245,15.453114 47.559576,29.727832 Z"
     style="fill:#d473ff;fill-opacity:1;fill-rule:evenodd;stroke:none;stroke-width:1px;stroke-linecap:butt;stroke-linejoin:miter;stroke-opacity:1" />
  <path
     id="hex0"
     d="M 77.265097,15.441496 52.468089,1.1296439 52.524383,29.776584 Z"
     style="fill:#d473ff;fill-opacity:1;fill-rule:evenodd;stroke:none;stroke-width:1px;stroke-linecap:butt;stroke-linejoin:miter;stroke-opacity:1" />
  <path
     id="hex1"
     d="M 79.752147,48.29155 79.74807,19.660783 54.967238,34.033005 Z"
     style="fill:#d473ff;fill-opacity:1;fill-rule:evenodd;stroke:none;stroke-width:1px;stroke-linecap:butt;stroke-linejoin:miter;stroke-opacity:1" />
  <path
     id="hex2"
     d="M 52.585963,66.974602 77.378896,52.655688 52.541771,38.380968 Z"
     style="fill:#d473ff;fill-opacity:1;fill-rule:evenodd;stroke:none;stroke-width:1px;stroke-linecap:butt;stroke-linejoin:miter;stroke-opacity:1" />
  <path
     id="hex3"
     d="m 22.749053,52.751979 24.79701,14.311854 -0.05629,-28.646942 z"
     style="fill:#d473ff;fill-opacity:1;fill-rule:evenodd;stroke:none;stroke-width:1px;stroke-linecap:butt;stroke-linejoin:miter;stroke-opacity:1" />
  <path
     id="hex4"
     d="m 20.238065,19.794524 0.0041,28.630768 24.780834,-14.37222 z"
     style="fill:#d473ff;fill-opacity:1;fill-rule:evenodd;stroke:none;stroke-width:1px;stroke-linecap:butt;stroke-linejoin:miter;stroke-opacity:1" />
  <g
     transform="translate(-10.865122,-16.036364)"
     style="fill:#d473ff;fill-opacity:1"
     id="triangle_bottom">
    <path
       style="fill:#d473ff;fill-opacity:1;fill-rule:evenodd;stroke:none;stroke-width:1px;stroke-linecap:butt;stroke-linejoin:miter;stroke-opacity:1"
       d="m 60.811183,92.521632 18.915106,-9.63433 c 0,0 -9.99222,16.529163 -12.856254,20.536568 -2.864033,4.0074 -6.058852,3.86934 -6.058852,3.86934 z"
       id="path4481" />
    <path
       style="fill:#d473ff;fill-opacity:1;fill-rule:evenodd;stroke:none;stroke-width:1px;stroke-linecap:butt;stroke-linejoin:miter;stroke-opacity:1"
       d="m 60.811183,92.521631 -18.915106,-9.63433 c 0,0 9.99222,16.529168 12.856254,20.536569 2.864033,4.0074 6.058852,3.86934 6.058852,3.86934 l 2.12132,-7.788899 z"
       id="path4481-3" />
  </g>
  <g
     style="fill:#d473ff;fill-opacity:1"
     id="triangle_right"
     transform="matrix(-0.5,-0.8660254,0.8660254,-0.5,38.187641,110.48864)">
    <g
       id="g4599">
      <path
         id="path4481-0"
         d="m 60.811183,92.521632 18.915106,-9.63433 c 0,0 -9.99222,16.529163 -12.856254,20.536568 -2.864033,4.0074 -6.058852,3.86934 -6.058852,3.86934 z"
         style="fill:#d473ff;fill-opacity:1;fill-rule:evenodd;stroke:none;stroke-width:1px;stroke-linecap:butt;stroke-linejoin:miter;stroke-opacity:1" />
      <path
         id="path4481-3-6"
         d="m 60.811183,92.521631 -18.915106,-9.63433 c 0,0 9.99222,16.529168 12.856254,20.536569 2.864033,4.0074 6.058852,3.86934 6.058852,3.86934 l 1.81978,-7.731415 z"
         style="fill:#d473ff;fill-opacity:1;fill-rule:evenodd;stroke:none;stroke-width:1px;stroke-linecap:butt;stroke-linejoin:miter;stroke-opacity:1" />
    </g>
  </g>
  <g
     style="fill:#d473ff;fill-opacity:1"
     id="triangle_left"
     transform="matrix(0.5,-0.8660254,-0.8660254,-0.5,63.189119,111.07131)">
    <path
       style="fill:#d473ff;fill-opacity:1;fill-rule:evenodd;stroke:none;stroke-width:1px;stroke-linecap:butt;stroke-linejoin:miter;stroke-opacity:1"
       d="m 60.811183,92.521632 18.915106,-9.63433 c 0,0 -9.99222,16.529163 -12.856254,20.536568 -2.864033,4.0074 -6.058852,3.86934 -6.058852,3.86934 z"
       id="path4481-0-6" />
    <path
       style="fill:#d473ff;fill-opacity:1;fill-rule:evenodd;stroke:none;stroke-width:1px;stroke-linecap:butt;stroke-linejoin:miter;stroke-opacity:1"
       d="m 60.811183,92.521631 -18.915106,-9.63433 c 0,0 9.99222,16.529168 12.856254,20.536569 2.864033,4.0074 6.058852,3.86934 6.058852,3.86934 l 1.231091,-8.280312 z"
       id="path4481-3-6-1" />
  </g>
</svg>
